# xmcd CD database file
# Copyright (C) 1993-1998 Ti Kan
# 
# Track frame offsets:
#     150
#     15556
#     30681
#     46504
#     61695
#     74296
# 
# Disc length: 1252 seconds
# 
# Revision: 1
# Processed by: cddbd v1.4b41PL1 Copyright (c) Steve Scherf et al.
# Submitted via: DiscPlay 4.0.4
# 
DISCID=3e04e206
DTITLE=Nelson/Hageman - Nelson/Hageman
DYEAR=1900
DGENRE=
TTITLE0=Same Ol' Thing
TTITLE1=Before She Says Goodbye
TTITLE2=Not Exactly Totally Sober
TTITLE3=Same Ol' Thing (60's Pop Version)
TTITLE4=Closer To The Truth
TTITLE5=Lying In Bed
EXTD=
EXTT0=
EXTT1=
EXTT2=
EXTT3=
EXTT4=
EXTT5=
PLAYORDER=
